<svg width="127" height="56" viewBox="0 0 127 56" fill="none" xmlns="http://www.w3.org/2000/svg">
<g clip-path="url(#clip0_177_939)">
<path d="M21.4149 0.735125C31.6067 -3.8657 48.0091 14.4408 53.7241 19.2993L48.7167 24.5282L49.557 32.9366C50.1452 35.5445 50.464 41.3174 47.0333 43.5441C43.6025 45.7709 27.7496 49.5234 17.2471 56L18.0136 45.8368L19.9804 45.931L20.086 51.1903C30.2616 44.9151 39.9386 44.9174 43.2626 42.76C46.5864 40.6026 46.2778 35.0096 45.7079 32.4829L44.8936 24.3361L49.7449 19.2699C44.6015 14.8973 31.7764 1.60537 21.4095 0.80167L21.4149 0.735125Z" fill="black"/>
<path d="M19.518 4.5035C32.2944 2.23823 40.5285 19.4997 40.2446 20.6314C40.1654 20.9465 39.9966 21.2605 39.7966 21.5512C39.6067 20.6703 39.2963 19.3103 39.1088 18.9366C38.8241 18.3685 35.1329 9.13592 25.4806 5.63782C20.3313 3.77177 15.671 8.10121 13.0376 11.3295C11.5285 12.7068 5.68595 21.0199 2.96779 25.8901L7.85478 30.0128L9.46425 36.0971C9.73489 38.0689 11.9597 45.0662 14.9342 45.7316C17.9089 46.3965 26.9684 39.2079 35.986 41.006L38.1857 30.668L37.6162 43.1455C28.0509 41.2381 15.8488 48.8367 12.6934 48.1315C9.53815 47.4259 7.17831 40.0034 6.89127 37.9117L5.18445 31.4581L0 27.0851C2.88312 21.9193 9.08033 13.1016 10.6814 11.6401C12.4912 8.7904 17.1833 4.91749 19.518 4.5035Z" fill="black"/>
<path d="M12.703 18.9345C12.703 19.5596 12.1946 20.0663 11.5673 20.0663C10.9401 20.0663 10.4316 19.5596 10.4316 18.9345C10.4316 18.3094 10.9401 17.8027 11.5673 17.8027C12.1946 17.8027 12.703 18.3094 12.703 18.9345Z" fill="black"/>
<path d="M38.8252 13.8416C39.4524 13.8416 39.9609 13.335 39.9609 12.7099C39.9609 12.0848 39.4524 11.5781 38.8252 11.5781C38.198 11.5781 37.6895 12.0848 37.6895 12.7099C37.6895 13.335 38.198 13.8416 38.8252 13.8416Z" fill="black"/>
<path d="M21.4149 0.735125C31.6067 -3.8657 48.0091 14.4408 53.7241 19.2993L48.7167 24.5282L49.557 32.9366C50.1452 35.5445 50.464 41.3174 47.0333 43.5441C43.6025 45.7709 27.7496 49.5234 17.2471 56L18.0136 45.8368L19.9804 45.931L20.086 51.1903C30.2616 44.9151 39.9386 44.9174 43.2626 42.76C46.5864 40.6026 46.2778 35.0096 45.7079 32.4829L44.8936 24.3361L49.7449 19.2699C44.6015 14.8973 31.7764 1.60537 21.4095 0.80167L21.4149 0.735125Z" fill="black"/>
<path d="M19.518 4.5035C32.2944 2.23823 40.5285 19.4997 40.2446 20.6314C40.1654 20.9465 39.9966 21.2605 39.7966 21.5512C39.6067 20.6703 39.2963 19.3103 39.1088 18.9366C38.8241 18.3685 35.1329 9.13592 25.4806 5.63782C20.3313 3.77177 15.671 8.10121 13.0376 11.3295C11.5285 12.7068 5.68595 21.0199 2.96779 25.8901L7.85478 30.0128L9.46425 36.0971C9.73489 38.0689 11.9597 45.0662 14.9342 45.7316C17.9089 46.3965 26.9684 39.2079 35.986 41.006L38.1857 30.668L37.6162 43.1455C28.0509 41.2381 15.8488 48.8367 12.6934 48.1315C9.53815 47.4259 7.17831 40.0034 6.89127 37.9117L5.18445 31.4581L0 27.0851C2.88312 21.9193 9.08033 13.1016 10.6814 11.6401C12.4912 8.7904 17.1833 4.91749 19.518 4.5035Z" fill="black"/>
<path d="M68.0247 37.3346C67.152 37.3346 66.408 37.2409 65.7921 37.0533C65.193 36.8658 64.7058 36.5846 64.3293 36.2095C63.9528 35.8345 63.6791 35.3657 63.5083 34.8031C63.3543 34.2406 63.2773 33.5842 63.2773 32.8342C63.2773 32.6807 63.2773 32.5273 63.2773 32.3739C63.2942 32.2034 63.3116 32.0329 63.3285 31.8625H65.4841C65.4841 33.141 65.6808 34.0786 66.0742 34.6753C66.4849 35.2548 67.1008 35.5447 67.9218 35.5447C68.8625 35.5447 69.4959 35.2208 69.8207 34.573C70.1629 33.9252 70.3337 33.0046 70.3337 31.8113V20.7136L66.6131 20.2022V18.668H72.8743V31.7091C72.8743 33.6866 72.4893 35.1185 71.7195 36.005C70.9496 36.8914 69.7178 37.3346 68.0247 37.3346ZM79.6688 37.3346C79.2411 37.3346 78.7876 37.2749 78.3089 37.1556C77.8469 37.0533 77.4193 36.8658 77.0259 36.5931C76.6326 36.3033 76.3072 35.9197 76.0504 35.4424C75.7941 34.948 75.666 34.3258 75.666 33.5757C75.666 33.0302 75.7514 32.5359 75.9223 32.0926C76.0937 31.6324 76.3673 31.2402 76.7433 30.9163C77.1198 30.5925 77.6076 30.3368 78.206 30.1493C78.8219 29.9447 79.5744 29.8168 80.4639 29.7657L83.1326 29.6378V28.4871C83.1326 27.7541 82.9871 27.1319 82.6965 26.6205C82.4055 26.092 81.8581 25.8278 81.0545 25.8278C80.6095 25.8278 80.233 25.9045 79.925 26.0579C79.6171 26.2113 79.3608 26.4159 79.1557 26.6716C78.9675 26.9273 78.8219 27.2172 78.7191 27.541C78.6337 27.8479 78.591 28.1547 78.591 28.4616H76.41V24.2935H78.0779L78.591 25.9045H78.6938C79.0355 25.2396 79.4974 24.7623 80.079 24.4725C80.6606 24.1827 81.3366 24.0378 82.1065 24.0378C83.2012 24.0378 84.048 24.3106 84.6465 24.8561C85.2624 25.4016 85.5703 26.2795 85.5703 27.4899V35.0332L87.495 35.5447V37.0789H83.6457L83.1326 35.2378C82.9961 35.681 82.7904 36.0391 82.5167 36.3118C82.243 36.5846 81.9441 36.7976 81.6187 36.9511C81.2939 37.1045 80.9517 37.2068 80.5926 37.2579C80.2504 37.3091 79.9424 37.3346 79.6688 37.3346ZM80.3617 35.5447C80.8747 35.5447 81.3108 35.4424 81.6699 35.2378C82.0295 35.0162 82.3116 34.7434 82.5167 34.4195C82.7393 34.0786 82.8932 33.7036 82.9786 33.2944C83.0815 32.8683 83.1326 32.4506 83.1326 32.0415V30.9675L80.8489 31.0954C80.3015 31.1295 79.857 31.2147 79.5148 31.3511C79.1726 31.4874 78.8989 31.6665 78.6938 31.8881C78.4881 32.0926 78.3431 32.3313 78.2572 32.604C78.1892 32.8598 78.1549 33.1325 78.1549 33.4223C78.1549 33.8484 78.2234 34.1979 78.36 34.4707C78.4971 34.7434 78.6679 34.9651 78.8731 35.1356C79.0787 35.2889 79.3097 35.3998 79.5659 35.468C79.8396 35.5191 80.1048 35.5447 80.3617 35.5447ZM98.0411 29.2287C98.0411 28.7684 98.0152 28.3337 97.9641 27.9246C97.9129 27.5155 97.8017 27.1575 97.6303 26.8506C97.4763 26.5438 97.2453 26.2966 96.9374 26.1091C96.6295 25.9215 96.2192 25.8278 95.7062 25.8278C95.21 25.8278 94.7739 25.9386 94.3974 26.1602C94.0383 26.3818 93.7388 26.6716 93.4994 27.0296C93.26 27.3876 93.0802 27.7797 92.9605 28.2058C92.8577 28.632 92.8065 29.0497 92.8065 29.4588V35.0332L94.7306 35.5447V37.0789H88.4441V35.5447L90.3688 35.0332V26.3392L88.4188 25.8278V24.2935H92.2935L92.8065 26.3392C92.9774 25.5721 93.3966 25.001 94.0636 24.626C94.7481 24.2339 95.5606 24.0378 96.5013 24.0378C97.374 24.0378 98.0669 24.1912 98.58 24.4981C99.1105 24.805 99.5122 25.2055 99.7859 25.6999C100.076 26.1943 100.265 26.7569 100.35 27.3876C100.453 28.0013 100.504 28.6235 100.504 29.2543V35.0332L102.429 35.5447V37.0789H98.0411V29.2287ZM108.56 37.3346C107.876 37.3346 107.286 37.2409 106.789 37.0533C106.293 36.8488 105.882 36.576 105.558 36.2351C105.233 35.8941 104.993 35.5021 104.839 35.0588C104.686 34.5986 104.609 34.1127 104.609 33.6013V26.3392L103.069 25.8278V24.2935H107.072V31.9136C107.072 32.4591 107.097 32.962 107.149 33.4223C107.2 33.8655 107.303 34.2491 107.456 34.573C107.627 34.8799 107.858 35.1185 108.149 35.2889C108.44 35.4594 108.816 35.5447 109.278 35.5447C109.775 35.5447 110.194 35.4509 110.535 35.2634C110.895 35.0759 111.186 34.8287 111.408 34.5218C111.631 34.1979 111.793 33.84 111.896 33.4479C111.998 33.0558 112.05 32.6552 112.05 32.2461V26.3392L109.74 25.8278V24.2935H114.487V35.0332L116.438 35.5447V37.0789H112.563L112.05 34.9565C111.878 35.7578 111.485 36.3544 110.869 36.7465C110.253 37.1386 109.483 37.3346 108.56 37.3346ZM119.769 35.4935L119.256 37.0789H117.819V33.1155H120.026C120.026 34.019 120.248 34.6753 120.693 35.0844C121.154 35.4765 121.693 35.6725 122.309 35.6725C122.771 35.6725 123.207 35.5532 123.618 35.3145C124.028 35.0588 124.233 34.6582 124.233 34.1127C124.233 33.6695 124.079 33.32 123.771 33.0643C123.464 32.7916 123.079 32.5529 122.617 32.3483C122.172 32.1438 121.684 31.9392 121.155 31.7346C120.624 31.53 120.128 31.2658 119.666 30.9419C119.221 30.618 118.845 30.2089 118.537 29.7145C118.229 29.2031 118.075 28.5468 118.075 27.7456C118.075 27.0807 118.178 26.5182 118.383 26.0579C118.606 25.5806 118.888 25.1971 119.23 24.9072C119.572 24.6004 119.949 24.3788 120.359 24.2424C120.786 24.106 121.206 24.0378 121.616 24.0378C121.907 24.0378 122.19 24.0719 122.463 24.1401C122.736 24.2083 122.985 24.3191 123.207 24.4725C123.447 24.626 123.643 24.822 123.797 25.0606C123.951 25.2993 124.054 25.5806 124.105 25.9045H124.208L124.721 24.2935H126.158V28.2826H123.977C123.96 27.4814 123.763 26.8506 123.387 26.3903C123.011 25.93 122.498 25.6999 121.847 25.6999C121.385 25.6999 121.009 25.8363 120.718 26.1091C120.445 26.3818 120.308 26.7483 120.308 27.2086C120.308 27.6859 120.462 28.061 120.77 28.3337C121.078 28.6065 121.453 28.8537 121.899 29.0753C122.36 29.2799 122.857 29.4844 123.387 29.689C123.934 29.8935 124.43 30.1578 124.875 30.4817C125.337 30.7885 125.722 31.1891 126.03 31.6835C126.337 32.1608 126.491 32.7916 126.491 33.5757C126.491 34.2235 126.38 34.7861 126.158 35.2634C125.936 35.7407 125.645 36.1328 125.285 36.4396C124.943 36.7465 124.541 36.9681 124.079 37.1045C123.634 37.2579 123.181 37.3346 122.72 37.3346C122.412 37.3346 122.095 37.3005 121.77 37.2324C121.462 37.1642 121.18 37.0533 120.924 36.8999C120.667 36.7465 120.445 36.559 120.257 36.3374C120.068 36.0987 119.94 35.8174 119.872 35.4935H119.769Z" fill="black"/>
</g>
<defs>
<clipPath id="clip0_177_939">
<rect width="127" height="56" fill="white"/>
</clipPath>
</defs>
</svg>
