<svg width="48" height="51" viewBox="0 0 48 51" fill="none" xmlns="http://www.w3.org/2000/svg">
<g clip-path="url(#clip0_207_1289)">
<path d="M18.9407 0.669489C28.1709 -3.52054 43.0259 13.1514 48.2018 17.5761L43.6668 22.3382L44.4278 29.9958C44.9605 32.3709 45.2493 37.6284 42.1422 39.6563C39.0351 41.6842 24.6778 45.1016 15.166 51L15.8602 41.7443L17.6415 41.83L17.7371 46.6197C26.9528 40.9048 35.7168 40.9069 38.7272 38.9421C41.7375 36.9773 41.458 31.8837 40.9419 29.5826L40.2044 22.1632L44.598 17.5494C39.9398 13.5672 28.3247 1.46203 18.9357 0.730092L18.9407 0.669489Z" fill="black"/>
<path d="M17.2235 4.10046C28.7946 2.03745 36.2519 17.7577 35.9948 18.7884C35.9231 19.0754 35.7702 19.3613 35.5891 19.626C35.4171 18.8238 35.1359 17.5853 34.9662 17.2449C34.7083 16.7275 31.3654 8.31927 22.6237 5.13351C17.9601 3.43406 13.7395 7.37694 11.3545 10.317C9.98779 11.5713 4.69641 19.1422 2.23468 23.5776L6.66064 27.3321L8.11827 32.8732C8.36338 34.669 10.3783 41.0415 13.0722 41.6475C15.7662 42.253 23.9711 35.7063 32.1379 37.3438L34.1302 27.9288L33.6143 39.2922C24.9514 37.5552 13.9005 44.4754 11.0428 43.8331C8.1852 43.1905 6.04799 36.4307 5.78802 34.5258L4.24223 28.6484L-0.453125 24.6658C2.158 19.9612 7.77057 11.9308 9.22057 10.5998C10.8596 8.0046 15.1091 4.47749 17.2235 4.10046Z" fill="black"/>
<path d="M11.0532 17.2436C11.0532 17.8129 10.5927 18.2743 10.0246 18.2743C9.45663 18.2743 8.99609 17.8129 8.99609 17.2436C8.99609 16.6743 9.45663 16.2129 10.0246 16.2129C10.5927 16.2129 11.0532 16.6743 11.0532 17.2436Z" fill="black"/>
<path d="M34.7083 12.6063C35.2763 12.6063 35.7368 12.1449 35.7368 11.5756C35.7368 11.0064 35.2763 10.5449 34.7083 10.5449C34.1402 10.5449 33.6797 11.0064 33.6797 11.5756C33.6797 12.1449 34.1402 12.6063 34.7083 12.6063Z" fill="black"/>
<path d="M18.9407 0.669489C28.1709 -3.52054 43.0259 13.1514 48.2018 17.5761L43.6668 22.3382L44.4278 29.9958C44.9605 32.3709 45.2493 37.6284 42.1422 39.6563C39.0351 41.6842 24.6778 45.1016 15.166 51L15.8602 41.7443L17.6415 41.83L17.7371 46.6197C26.9528 40.9048 35.7168 40.9069 38.7272 38.9421C41.7375 36.9773 41.458 31.8837 40.9419 29.5826L40.2044 22.1632L44.598 17.5494C39.9398 13.5672 28.3247 1.46203 18.9357 0.730092L18.9407 0.669489Z" fill="black"/>
<path d="M17.2235 4.10046C28.7946 2.03745 36.2519 17.7577 35.9948 18.7884C35.9231 19.0754 35.7702 19.3613 35.5891 19.626C35.4171 18.8238 35.1359 17.5853 34.9662 17.2449C34.7083 16.7275 31.3654 8.31927 22.6237 5.13351C17.9601 3.43406 13.7395 7.37694 11.3545 10.317C9.98779 11.5713 4.69641 19.1422 2.23468 23.5776L6.66064 27.3321L8.11827 32.8732C8.36338 34.669 10.3783 41.0415 13.0722 41.6475C15.7662 42.253 23.9711 35.7063 32.1379 37.3438L34.1302 27.9288L33.6143 39.2922C24.9514 37.5552 13.9005 44.4754 11.0428 43.8331C8.1852 43.1905 6.04799 36.4307 5.78802 34.5258L4.24223 28.6484L-0.453125 24.6658C2.158 19.9612 7.77057 11.9308 9.22057 10.5998C10.8596 8.0046 15.1091 4.47749 17.2235 4.10046Z" fill="black"/>
</g>
<defs>
<clipPath id="clip0_207_1289">
<rect width="48" height="51" fill="white"/>
</clipPath>
</defs>
</svg>
